<?xml version="1.0" encoding="UTF-8"?><svg id="logo-without-text" xmlns="http://www.w3.org/2000/svg" viewBox="0 0 1000 460"><defs><style>.cls-1{fill:#171d6c;}.cls-2{fill:#02519b;}.cls-3{fill:#0a1365;}</style></defs><g id="logo"><g id="oval"><path class="cls-3" d="M176.74,69.46c78.26-27.63,184.6-45.24,294.78-45.24,262.27,0,474.87,115.49,474.87,236.06,0,53.72-34.15,105.07-94.95,144.74,87.04-35.54,138.55-97.4,138.55-163.07C990,110.31,772.3,2.8,505.41,2.8c-127.83,0-246.45,19.84-328.67,66.66Z"/><path class="cls-2" d="M852.62,379.95c-76.05,30.04-182.53,50.8-295.6,53.45-275.61,6.47-502.93-111.75-499.84-236.89,1.35-54.51,44.71-112.48,108.53-151.66C74.5,80,12.11,148.7,10.06,215.74c-4.22,137.88,230.06,248.17,512.62,241.15,131.96-3.28,251.2-26.92,329.94-76.94Z"/></g><path id="pig" class="cls-1" d="M411.03,382.88c-3.25,0-6.27-.34-9.23-1.04l-.26-.06c-1.06-.25-2.65-.62-3.02-1.27-.27-.47-.53-.95-.8-1.42-1.91-3.41-3.88-6.95-7.1-9.77-.73-.64-.06-1.8.88-3.26.13-.2.25-.39.36-.57,2.83-4.57,6.74-8.23,10.53-11.76,5.94-5.55,8.72-12.52,8.27-20.74l-.02-.43c-.08-1.62-.16-3.46-1.84-4.82l-.29-.23-.32.18c-1.84,1.06-2.41,2.8-2.91,4.34l-.16.47c-1.87,5.55-5.89,9.73-9.77,13.78-1.71,1.78-3.48,3.62-5.05,5.56-1.34,1.66-3.76,1.96-6.11,2.26l-.59.08c-1.55.21-3.17.31-4.81.31-5.57,0-11.05-1.18-16.14-2.45-1.12-.28-1.83-.72-2.1-1.3-.27-.58-.13-1.38.41-2.37,1.25-2.29,2.88-4.87,5.47-6.72,5.79-4.14,9.78-9.86,12.19-17.46,3.29-10.38,5.11-19.09,5.73-27.41.19-2.58-.12-5.46-3.9-7.26-3.51-1.67-6.11-4.74-7.93-9.39-.25-.64-.5-1.29-.74-1.94-.4-1.04-.79-2.09-1.22-3.12-3.72-9-5.43-10.14-15.28-10.14l-12.33.02c-8,.02-16,.03-24,.03-2.76,0-8.28,0-8.28,0-2.83,0-6.05.32-8.85,2.71-1.74,1.48-3.95,2.26-6.41,2.26-.27,0-.53,0-.8-.03-1.55-.1-3.17-.16-4.83-.16-6,0-12.03.68-17.87,1.34-3.73.42-7.59.86-11.39,1.11-.52.03-1.05.11-1.59.19-.69.1-1.41.2-2.07.2-1.19,0-2-.34-2.6-1.1-1.45-1.82-.39-3.66.74-5.61l.5-.87c.46-.8,1.03-1.8.41-3.1l-.07-.15-.15-.08c-.68-.35-1.39-.52-2.17-.52-1.1,0-2.15.35-3.16.68-.62.2-1.21.4-1.79.51-2.31.45-4.59.68-6.8.68-4.91,0-9.67-1.13-14.15-3.37-5.83-2.91-9.23-7.95-10.4-15.42-.53-3.39,1.21-6.02,4.66-7.05,11.32-3.39,15.57-12.57,19.68-21.44l.45-.96c3.15-6.77,5.17-14.39,6.2-23.28l.08-.68-.7.13c-3.97.76-6,3.21-7.95,5.58l-.07.08c-4.34,5.27-7.95,7.62-11.69,7.62-2.14,0-4.42-.78-6.99-2.38-8-5-11.44-15.07-7.67-22.44.09-.17.17-.35.25-.53.18-.41.36-.81.62-1.06,5.76-5.52,6.7-10.53,3.15-16.78-.62-1.09-.76-2.18-.4-3.24.8-2.38,3.75-4.05,5.43-4.83,12.53-5.8,23.27-8.97,33.8-9.95,12.98-1.22,28.27-3.24,43.27-8.99,8.93-3.42,17.9-8.39,27.45-15.18,5.27-3.75,10.87-5.57,17.12-5.57.36,0,.72,0,1.08.02,1.33.04,2.65.06,3.97.06,24.47,0,47.68-7.5,67.52-14.52,23.29-8.25,45.13-13.88,66.77-17.21,29.38-4.53,61-8.71,93.16-8.71,4.81,0,9.6.1,14.24.28,37.59,1.52,73.25,12.33,105.97,32.12.69.41,1.38.82,2.07,1.22,2.58,1.49,5.25,3.03,7.33,5.24,1.07,1.14,2.31,1.69,3.77,1.69,1.37,0,2.71-.48,4-.95.29-.1.58-.21.86-.3,3.22-1.09,6.34-1.64,9.28-1.64,7.3,0,13.75,3.27,19.71,9.99,4.11,4.63,5.73,8.64,4.96,12.26-.85,4.01-4.71,7.61-11.8,11-.71.34-1.53.5-2.56.7-.56.11-1.16.23-1.83.39l-.58.14.22.53c3.01,7.23,5,14.28,6.07,21.57,1.78,12.14-.21,23.93-2.39,33.87-.58,2.66-1.2,5.32-1.81,7.97-2.85,12.36-5.8,25.14-5.6,38.38.11,7.39-2.82,14.62-5.65,21.6-.85,2.1-1.73,4.27-2.51,6.41-6.45,17.65-7.86,32.85-4.46,47.86,1.62,7.16,1.73,13.06-3.05,18.6-2.63,3.05-1.84,7.26-1.13,10.97.12.62.23,1.23.33,1.83,1.31,7.95-.07,9.93-8.24,11.75-1.77.4-3.53.6-5.23.6-8.43,0-14.91-4.86-20.65-10.1-1.61-1.47-2.43-3.58-2.38-6.11.08-3.83,2.15-7.98,5.45-11.02.19.91.05,1.9-.09,2.93-.26,1.91-.56,4.07,1.66,5.55l.09.06.11.02c.22.04.43.06.62.06.92,0,1.57-.41,2.13-.78.19-.12.38-.25.58-.35,1.05-.53,1.86-.79,2.49-.79.73,0,1.64.32,2.13,2.78.72,3.6,6.06,6.11,10.4,6.11,1.95,0,3.56-.5,4.64-1.43.55-.48,1.13-1.33,1.09-2.06-.11-1.99.09-4.07.29-6.08.48-4.88.97-9.93-2.79-14.57-1.29-1.59-2.43-3.18-2.3-5.1.05-.03.26-.16.32-.2.45.24.9.53,1.37.85,1.13.75,2.29,1.52,3.67,1.52.74,0,1.46-.22,2.18-.68,2.15-1.37,1.84-3.6,1.59-5.39-.07-.51-.14-.99-.16-1.45-.14-3.4-.38-6.85-.61-10.18-.26-3.7-.53-7.52-.65-11.29-.24-7.21,2.4-13.93,4.95-20.43.63-1.61,1.26-3.22,1.85-4.83,5.87-16.05,8.4-29.65,7.97-42.81-.22-6.75,1.73-13.37,3.62-19.77.99-3.35,2-6.81,2.71-10.26,2.33-11.42,4.35-24.98,1.63-39.06-1.1-5.72-3.72-10.99-6.26-16.09-.37-.75-.75-1.5-1.12-2.26l-.86-1.75c-1.58-3.19-3.21-6.49-4.39-9.86-.13-.37-.27-.75-.42-1.14-1-2.63-2.03-5.34.35-6.97,2.65-1.81,5.83-3.66,9.36-3.66,1.31,0,2.63.26,3.93.77,3.29,1.29,4.92,3.37,5.13,6.55.15,2.2-.88,3.74-2.97,4.45-.42.14-.81.22-1.15.22-1.17,0-1.96-.85-2.54-2.74-.61-1.97-1.84-2.92-3.77-2.92-.71,0-1.53.12-2.57.39l-.36.09-.03.36c-.38,4.89,1.47,8.98,5.37,11.81,1,.73,2.09,1.09,3.24,1.09,2.19,0,4.28-1.3,6.13-2.46l.14-.09c2.28-1.42,3.57-3.8,3.64-6.7.15-6.21-8.45-15.52-15.08-16.33-2.05-.25-3.83-.37-5.45-.37-4.63,0-8.33.97-11.65,3.04-1.06.66-1.93.97-2.72.97-.86,0-1.7-.37-2.58-1.13-20.95-18.17-47.9-29.82-82.37-35.63-16.76-2.82-34.38-4.19-53.88-4.19-8.12,0-16.43.23-25.42.71-27.78,1.48-55.94,5.3-83.69,11.34-16.76,3.65-33.24,8.88-47.37,13.5-2.6.85-5.18,1.72-7.77,2.6-11.77,3.97-23.94,8.08-36.63,9.61-3.39.41-7.07.61-11.28.61-3.18,0-6.34-.11-9.01-.22-.48-.02-.96-.03-1.44-.03-5.55,0-10.56,1.39-14.88,4.13-2.47,1.56-5.02,3.07-7.5,4.53-3.36,1.98-6.82,4.03-10.13,6.24-8.32,5.56-18.17,8.01-27.69,10.38-5.8,1.44-11.79,2.93-17.8,4.12-1.75.34-2.82.93-3.39,1.84-.58.95-.57,2.19.02,4.04,1.53,4.74,3.45,9,10.04,9h.45c2.8,0,5.53,1.34,8.36,4.1,3.09,3.02,6.73,5.48,10.25,7.86,1.17.79,2.35,1.59,3.51,2.4l.4.28c1.23.85,2.4,1.65,2.48,3.42-1.49.3-2.98.63-4.47.96-3.66.82-7.45,1.66-11.21,1.98-.31.03-.62.04-.92.04-4.1,0-7.69-2.52-9.82-6.9-2.85-5.84-7.45-8.44-14.94-8.44-.26,0-.53,0-.8,0-11.7.25-21.16,1.58-29.78,4.16-6.91,2.07-11.6,7.39-12.85,14.59-1.12,6.45,3.64,10.79,8.18,14.35,1.11.87,2.37,1.33,3.65,1.33,1.6,0,3.14-.69,4.46-1.99,1.76-1.75,3.31-3.72,4.82-5.63l.68-.86c2.69-3.4,5.78-5.13,9.18-5.13,2.34,0,4.84.82,7.44,2.44,3.63,2.26,7.92,2.68,11.99,2.92,1,.06,2,.07,3,.09,1.86.03,3.77.05,5.58.38.61.11,1.27.17,2.01.17.78,0,1.54-.06,2.35-.12.81-.06,1.64-.12,2.49-.12.29,0,.56,0,.83.02-.76,1.14-1.91,1.59-3.12,2.07-1.15.45-2.34.91-3.15,1.99l-.12.16.02.19c.65,5.68,4.65,9.57,9.04,13.57-.51.09-1.01.13-1.5.13-2.08,0-3.71-.77-5.43-1.58-.33-.15-.65-.34-.97-.53-.87-.51-1.76-1.03-2.79-1.03-.67,0-1.31.24-1.91.7-1.53,1.18-1.39,2.84-1.26,4.31.03.39.07.78.07,1.16,0,.81.26,1.58.5,2.33.39,1.17.72,2.19.14,3.24-.22.05-.43.07-.64.07-1.05,0-1.81-.62-2.61-1.27-.24-.19-.47-.39-.72-.56l-.26-.19c-1.39-1.02-2.83-2.07-4.81-2.07-.09,0-.19,0-.28,0-.34.02-.69.03-1.02.03-5.09,0-8.6-2.11-11.02-6.63l-.47-.88-.46.88c-.71,1.34-1.36,2.64-2,3.89-1.33,2.62-2.58,5.09-4.01,7.41-3.31,5.37-6.87,10.6-10.31,15.66-.99,1.45-2.63,1.92-4.37,2.41-.54.15-1.08.31-1.59.49-3.24,1.14-5.17,2.62-5.91,4.53-.73,1.9-.28,4.22,1.39,7.1,2.9,4.99,7.72,7.73,15.18,8.64,1.48.18,2.95.27,4.37.27,10.66,0,19.13-5.05,24.49-14.62.12-.21.23-.43.34-.65.55-1.09.94-1.76,1.78-1.76.24,0,.53.06.85.16,1.83.63,2.47,1.97,2.02,4.22-1.13,5.63-3.94,10.54-6.72,15.09-.19.3-.4.61-.63.93-.97,1.39-2.19,3.11-.99,4.93.7,1.06,1.76,1.58,3.24,1.58.73,0,1.46-.12,2.18-.23.42-.07.83-.13,1.22-.17,2.3-.21,4.59-.69,6.81-1.14.75-.16,1.5-.31,2.25-.45,1.77-.34,2.84-.99,3.28-1.96.44-.99.18-2.21-.81-3.72-.62-.96-1.4-2.16-1.73-3.35-.65-2.39.88-3.57,2.27-4.13.37-.15.72-.23,1.02-.23.98,0,1.61.82,2.26,2.04,1.43,2.72,3.49,4.89,6.31,6.62,1.73,1.07,3.35,1.59,4.94,1.59.93,0,1.87-.18,2.79-.55,4.19-1.65,8.77-2.39,14.82-2.39,2.67,0,5.39.14,8.02.27.88.05,1.77.09,2.65.13l2.46.11c5.42.25,11.03.52,16.54.52,8.61,0,15.67-.65,22.23-2.03,2.41-.51,4.79-.77,7.07-.77,17.24,0,27.82,14.51,30.36,27.98,1.31,6.95,3.51,13.3,5.85,20.02l.17.49c4.97,14.31,8.3,29.61-.96,44.47-1.35,2.17-3.24,3.85-5.07,5.48-1.06.94-2.16,1.92-3.15,2.99l-.2.21c-2.81,3.03-4.85,5.22-1.99,11.21,3.02,6.33,6.89,7.6,12.16,7.6.93,0,1.88-.03,2.87-.07h.13c8.76-.32,14.38-3.9,17.17-10.94,1.87-4.71,3.72-10.34,3.32-16.42-.12-1.79.1-2.87.71-3.5.52-.54,1.38-.81,2.64-.83,4.13-.07,5.21-2.59,6.2-5.89,2.87-9.57,5.57-20.98,3.82-33-1.52-10.44-4.54-17.86-9.79-24.06l-.47-.55c-1.62-1.9-3.3-3.87-3.87-6.32-.41-1.78-.64-3.21.52-4.1.37-.29.75-.42,1.17-.42.88,0,1.83.63,2.67,1.19l.17.11c2.53,1.68,5.08,3.43,7.77,5.29,1.14.79,4.23,2.91,4.23,2.91l.14-.79c.45-2.45.86-4.82,1.27-7.13.86-4.92,1.68-9.57,2.68-14.18,3.02-13.95,8.41-18.73,23.07-20.47,3.4-.4,6.88-.66,10.24-.91,4.3-.32,8.75-.65,13.08-1.28,3.38-.5,6.84-.75,10.28-.75,11.53,0,23.61,2.76,38.02,8.69,4.41,1.81,8.35,3.19,12.02,4.21,2.08.58,4.11.87,6.03.87,3.92,0,7.41-1.21,10.39-3.58,3.24-2.59,6.95-3.8,11.68-3.8.88,0,1.79.04,2.77.13,2.05.18,3.71.26,5.23.26,6.73,0,11.53-1.72,15.58-5.57,1.65-1.57,3.8-2.44,6.06-2.44,1.29,0,2.59.28,3.85.82,3.67,1.59,4.05,4.93,3.9,8.29-.54,12.47,2.68,23.98,9.82,35.2,5.64,8.85,5.06,18.22-1.83,29.48-3.74,5.76-7.29,11.22-13.31,14.7-5.45,3.14-5.51,5.81-4.61,7.49,1.82,3.38,4.37,6.88,9.52,7.17.58.03,1.15.05,1.7.05,10.13,0,15.8-5.52,15.96-15.54.01-.73.01-1.46,0-2.19,0-1.37,0-2.78.08-4.16.53-8.03,2.49-10.22,10.52-11.76,5.87-1.12,9.35-4.18,10.95-9.62,1.07-3.63,2.74-7.14,4.35-10.54,1.79-3.77,3.65-7.67,4.73-11.82,1.95-7.49.13-11.25-6.96-14.38-4.32-1.91-8.55-4.16-12.64-6.33-1.78-.95-3.57-1.9-5.37-2.82-3.96-2.04-7.15-5.08-10.22-8.02-1.62-1.55-3.3-3.16-5.09-4.61-1.98-1.61-2.55-4.21-3.09-6.72l-.11-.5c-.77-3.52-1.46-5.82-3.88-5.82-1.22,0-2.86.6-5.09,1.57-3.4,1.47-6.8,3.07-10.09,4.61-3.17,1.49-6.45,3.03-9.71,4.45-.34.15-.69.32-1.04.49-1.02.5-2.08,1.02-3.13,1.02-.59,0-1.14-.16-1.68-.5-.19-.8.23-1.19,1.15-1.68l.11-.06c9.74-5.17,19.82-10.52,30.6-14.02,1.08-.35,1.96-.52,2.68-.52,1.09,0,2.36.33,2.44,2.88.38,12.41,9.44,18.67,18.21,24.72l1.4.97c5.37,3.73,11.42,6.46,17.15,8.86.23.1.47.2.71.31,1.03.46,2.09.94,3.28.94.43,0,.85-.06,1.25-.19.88-.28,1.71-.42,2.47-.42,2.64,0,4.57,1.75,5.72,5.19,1.64,4.9,4.56,8.01,9.44,10.08,2.11.89,3.2,1.71,3.24,2.45.04.75-.97,1.7-3.02,2.85-4.24,2.37-5.56,5.33-4.41,9.91,2.36,9.36,3.85,17.28,3.46,25.49-.3,6.32-2.57,11.83-6.91,16.77,6.38-19.81,1.32-38.95-4.45-56.9l-.45-1.42-.54,1.39c-1.35,3.51-2.81,6.95-4.22,10.28-3.81,9-7.41,17.51-8.96,26.87-.45,2.75-1.11,5.45-1.94,8.02-1.47,4.55-3.9,6.51-8.1,6.53-3.96.02-6.7,1.46-8.13,4.27-4.17,8.18-10.71,12.16-19.99,12.16-2.22,0-4.65-.23-7.22-.69-.57-.1-1.14-.17-1.71-.24-2.42-.3-4.71-.58-6.15-3.28-2.28-4.29-2.72-7.42,1.78-10.71,8.73-6.38,14.72-13.84,18.31-22.82,4.14-10.38,3.49-18.66-2.07-26.03-6.7-8.89-9.76-19.19-9.11-30.61.02-.29.04-.58.06-.88.18-2.22.4-4.97-2.28-6.26-.61-.29-1.24-.44-1.88-.44-1.94,0-3.6,1.33-5.06,2.5l-.42.34c-3.97,3.15-8.15,4.68-12.79,4.68-1.7,0-3.49-.21-5.34-.63-1.52-.34-3.02-.51-4.46-.51-4.04,0-7.68,1.32-10.83,3.93-3.6,2.99-7.3,4.44-11.31,4.44-2.65,0-5.49-.66-8.43-1.97-3.12-1.38-6.41-2.49-9.6-3.57-3.13-1.06-6.37-2.15-9.41-3.49-7.52-3.31-15.87-4.86-26.27-4.86-5.61,0-11.35.43-16.9.85l-3.24.24c-10.42.76-19.79,1.73-28.81,6.01-2.83,1.34-4.85,2.76-6.12,5.65-2.8,6.36-3.15,13.11-3.48,19.64-.1,2-.21,4.06-.38,6.08-.03.37-.06.75-.08,1.11-.18,2.78-.32,4.97-3.57,6-2.24.71-1.81,2.5-1.46,3.94l.08.35c4.38,18.88,3.42,37.41-2.85,55.08-.93,2.61-1.97,4.78-5.34,4.89-3.7.12-3.88,3.25-4,5.32v.23c-.24,3.88-.98,7.94-2.27,12.41-2.21,7.65-6.94,12.05-14.47,13.43-3.7.68-7.05,1.01-10.24,1.01ZM373.15,261.92c-1.45,0-2.97.12-4.51.35l-.78.12.42.65c3.56,5.51,6.43,11.08,9.32,18.06.81,1.96,2.6,3.09,5.25,4.6,4.43,2.95,9.55,19.53,7.48,24.29-.34.79-.94,1.89-1.82,2.67-3.5,3.08-4.8,7.14-5.69,11.06-1.86,8.21-6.07,14.37-12.85,18.86-.19.12-.38.24-.58.36-1.24.74-2.78,1.66-2.34,4.12l.08.47.49-.06c4.95-.57,9.82-1.63,14.54-2.65.92-.2,1.85-.4,2.77-.6.59-.13,1.17-.22,1.73-.3,2.8-.43,5.45-.84,5.22-5.34-.07-1.29,1.02-2.01,3.22-2.12,5.57-.29,7.33-4.22,8.56-7.88,1.5-4.48,1.18-8.95.73-12.35-.51-3.87-1.09-7.79-1.66-11.58-.69-4.6-1.4-9.37-1.97-14.06-1.08-8.78-5.38-16.58-12.79-23.2-4.05-3.62-9.03-5.45-14.79-5.45ZM253.54,147.11c-10.11.7-19.25,4.23-29.3,8.43-2.77,1.16-3.83,3.86-2.91,7.42l.04.14.1.1c.18.17.35.36.53.55.41.44.83.9,1.38,1.21,1.83,1.05,5.32,1.63,9.85,1.63,6.95,0,16.1-1.42,19.35-4.06.9-.73,2.03-1.64,1.53-2.97-1.49-3.94.39-7.12,2.57-10.81l.63-1.07-.74-.12c-.44-.07-.83-.15-1.18-.23-.59-.13-1.1-.23-1.61-.23-.08,0-.16,0-.24,0ZM693.17,255.43c-1.57,0-3.3-.15-5.15-.46-13.42-2.21-23.12-8.75-29.65-20.01-.54-.93-1.06-1.87-1.6-2.82-3.66-6.55-7.44-13.32-15.68-16.7-2.59-1.06-4.72-3.22-6.98-5.5-1.09-1.1-2.21-2.23-3.41-3.27-3.27-2.15-5.35-5.02-7.56-8.06-1.08-1.49-2.2-3.04-3.5-4.55l-.65-.76-.26.96c-2.73,10.19-9.23,18.46-20.45,26.04-7.65,5.17-17.07,10.45-28.83,10.45h0c-.46,0-.93,0-1.4-.02-4.14-.15-8.59-.21-13.99-.21-3.59,0-7.18.03-10.78.06-3.59.03-7.18.06-10.77.06-2.1,0-4.21-.01-6.31-.04-12.89-.16-25.51-.62-36.16-1.05-9.39-.38-17.2-5.93-19.89-14.15-3.28-10.03-.37-20.8,7.09-26.2,2.85-2.06,6.38-2.41,9.79-2.75.55-.05,1.1-.11,1.65-.17,10.99-1.25,22.18-2.39,33.01-3.5,8.43-.86,17.15-1.76,25.72-2.69,15.35-1.67,30.94-3.56,46.01-5.39l1-.12c2.64-.32,5-.48,7.22-.48,1.32,0,2.62.06,3.86.17,6.18.56,10.62,4.07,13.56,10.73l.5,1.14.47-1.15c3.28-8.08,6.2-14.75,11.43-20.9,4.81-5.66,6.81-12.88,8.74-19.86.4-1.45.8-2.89,1.22-4.32,1.66-5.6,3.54-11.95,7.88-17.17,4-4.81,8.56-7.15,13.94-7.15,2.64,0,5.51.58,8.56,1.73,16.49,6.23,28.39,18.8,37.45,39.56,7.68,17.61,11.15,34.87,10.31,51.3-.72,14.08-3.82,25.86-9.5,36.01-4.41,7.88-9.46,11.24-16.89,11.24ZM663.2,120.85c-3.43,0-6.22,1.52-8.78,4.78-3.02,3.85-6.27,8.46-7.49,13.53-3.51,14.55-9,26.01-17.29,36.06-7.46,13.79-4.69,23.48,9.5,33.52l2.61,1.85c2.96,2.1,5.92,4.2,8.9,6.28,2.08,1.44,3.54,3.13,4.35,5,4.44,10.26,12.82,17.42,21.03,23.88,3.41,2.69,7.74,4.17,12.18,4.17h0c6.39,0,12.33-2.97,15.89-7.93,2.42-3.39,4.25-7.2,5.59-11.67,9.36-31.27,4.14-61.07-15.52-88.58-7.52-10.53-16.08-17.1-26.15-20.08-1.81-.54-3.39-.8-4.83-.8ZM550,228.11c5.05,0,9.14.06,12.89.19.62.02,1.24.03,1.86.03,9.18,0,17.76-2.44,25.49-7.26,7.87-4.9,17.45-12.03,21.72-23.7,2.01-5.48,1.61-11.2-1.06-15.29-1.95-2.99-4.96-4.86-8.48-5.24-1.67-.18-3.32-.28-4.88-.28-1.91,0-3.74.14-5.43.41-13.88,2.26-28.11,3.62-41.87,4.94-5.63.54-11.45,1.09-17.17,1.7-13.97,1.49-28.21,2.73-41.98,3.93l-1.05.09c-6.26.55-10.38,3.34-12.57,8.55-.79,1.87-1.45,3.78-2.28,6.21l-.38,1.1v.05c-.85,7.28.48,13.05,3.96,17.14,3.09,3.63,7.88,5.82,13.85,6.33,6.13.52,12.4.63,18.47.74,3.12.05,6.34.11,9.51.22,3.79.13,7.94.2,13.05.2,2.73,0,5.45-.02,8.18-.03,2.73-.02,5.45-.03,8.17-.03ZM404.58,229.71c-8.87,0-17.07-.12-25.04-.38-16.72-.54-25.42-9.93-25.87-27.91,0-.72,0-1.41-.01-2.06-.02-1.37-.03-2.55.06-3.74.61-7.78,6.16-12.99,14.49-13.59,2.5-.18,5.01-.39,7.51-.61,6.24-.53,12.7-1.09,19.05-1.09,4.52,0,8.58.27,12.43.84,1.44.21,2.88.41,4.32.61,7.32,1.02,14.89,2.08,22,4.49,8.05,2.73,13.94,7.83,16.56,14.36,2.45,6.1,1.83,12.97-1.75,19.35-3.54,6.32-9.36,9.22-18.86,9.43-9.01.2-17.15.29-24.89.29ZM392.18,226.02c4.48,0,9.08.07,13.52.14,4.58.07,9.32.15,14.09.15,2.9,0,5.55-.03,8.11-.08,7.07-.89,14.73-2.62,16.71-11.88,2.74-12.77-3.8-22.85-16.67-25.67-10.35-2.27-24.04-4.88-38.08-4.88-6.51,0-12.59.53-18.59,1.62-7.06,1.29-9.71,2.85-11.48,9.55-1.97,7.47-.13,15.65,4.92,21.89,4.75,5.87,11.67,9.24,18.97,9.24.19,0,.39,0,.58,0,2.46-.06,5.05-.09,7.92-.09ZM398.02,177.65c-11.33,0-22.97-.6-35.59-1.84-4.8-.47-8.32-2.76-10.47-6.82-4.24-8-5.51-16.95-3.89-27.36,1.46-9.39,9.16-12.58,16.92-15.03,12.93-4.09,27.29-6.5,43.9-7.36,8.36-.43,16.65-1.16,24.37-1.88,1.25-.12,2.47-.18,3.62-.18,8.33,0,14.4,3.05,19.1,9.61l.73,1.01.22-1.21c1.41-7.8,3.8-15.79,11.63-21.36,14.22-9.62,30.77-12.25,46.78-14.78l3.36-.54c12.38-1.99,25.51-2.92,41.33-2.92,10.25,0,20.56.4,30.17.82,13.84.61,24.46,1.53,34.43,2.96,5.39.77,9.14,3.43,12.14,8.61,8.99,15.52,3.57,37.14-12.89,51.39-10.67,9.24-23.17,11.9-36.4,14.72l-1.82.39c-17.64,3.78-35.62,5.69-53.43,5.7h-.45c-15.65-.03-34.13-.5-52.61-3.81-4.05-.72-6.87-2.61-8.86-5.93l-1.44-2.39c-3.69-6.11-7.5-12.43-9.92-19.32l-.64-1.81-.37,1.88c-1.2,6.1.13,11.87,1.85,18.25.19.7.41,1.39.64,2.08.33,1,.66,2.03.87,3.06.78,3.87.36,6.91-1.25,9.06-1.64,2.19-4.62,3.58-8.86,4.11-2.84.36-5.92.53-9.4.53s-6.89-.16-10.24-.32c-1.69-.08-3.44-.12-5.35-.12-4.24,0-8.55.2-12.72.39-3.26.15-6.63.31-9.94.37-1.84.03-3.68.05-5.52.05ZM436.01,120.07c-.93,0-1.9.07-2.87.2-1.06.14-2.15.23-3.2.31-.62.05-1.23.1-1.84.16-4.25.41-8.57.76-12.76,1.1-13.59,1.1-27.65,2.23-41.2,5.7-19.46,4.98-23.33,10.48-20.71,29.46.03.23.1.44.22.81.08.24.18.55.31,1,2.78,10.4,6.82,14.14,15.44,14.29,6.09.11,12.29.29,18.28.47,5.01.15,10.19.31,15.28.41l2.43.05c5.99.13,12.19.26,18.29.26,9.31,0,16.97-.31,24.1-.99,3.71-.35,6.09-.86,7.31-2.43,1.02-1.32,1.15-3.27.45-6.7-2.29-11.14-3.79-22.33-4.96-31.81-.93-7.58-6.51-12.29-14.56-12.29ZM579.37,90.35c-3.27,0-6.53.11-9.7.31-10.65.7-21.38,1.13-30.47,1.46-23.11.85-42.23,3.28-60.4,12.4-10.41,5.23-16.87,17.61-14.69,28.2,1.69,8.26,5.57,15.71,9.31,22.92l.41.8c2.6,5.01,6.87,7.96,12.68,8.78,12.49,1.75,25.44,2.59,39.59,2.59h0c9.35,0,19.18-.37,30.06-1.13,13.56-1.26,27.11-3.77,40.22-6.2,2-.37,4-.74,6.01-1.11,2.38-.43,4.36-1.15,5.89-2.13,18.93-12.08,27.41-27.02,25.93-45.66-.66-8.37-5.13-14.67-11.37-16.03-16-3.5-30.23-5.2-43.48-5.2Z"/></g></svg>